<?xml version="1.0" encoding="UTF-8"?>
<svg width="738px" height="261px" viewBox="0 0 738 261" version="1.1" xmlns="http://www.w3.org/2000/svg" xmlns:xlink="http://www.w3.org/1999/xlink">
    <!-- Generator: Sketch 49.2 (51160) - http://www.bohemiancoding.com/sketch -->
    <title>T_Drive_Why-Drive-with-us</title>
    <desc>Created with Sketch.</desc>
    <defs>
        <rect id="path-1" x="0" y="0" width="768" height="260.660598"></rect>
    </defs>
    <g id="Allpages" stroke="none" stroke-width="1" fill="none" fill-rule="evenodd">
        <g id="driveOverview_whyDriveWithUs-T" transform="translate(0.000000, -126.000000)">
            <g id="T_Drive_Why-Drive-with-us" transform="translate(0.000000, 126.000000)">
                <mask id="mask-2" fill="white">
                    <use xlink:href="#path-1"></use>
                </mask>
                <use id="Mask" fill="#F6F6F7" opacity="0" xlink:href="#path-1"></use>
                <g id="Illo/howDrivingWorks/0822/t" mask="url(#mask-2)">
                    <g transform="translate(-1.997399, 0.000000)" id="whyDriveWithUs_tablet">
                        <g>
                            <path d="M737.726172,217.232308 L724.100781,173.002846 C704.961068,110.914962 646.41901,68.4221538 580.016536,68.4221538 L65.1692708,68.4221538 C42.6486697,68.3925756 20.3981542,73.3314542 0,82.8875769 L0,261.210808 L705.311979,261.210808 C716.08087,261.208266 726.209076,256.087171 732.603445,247.411505 C738.997813,238.735838 740.898922,227.535958 737.726172,217.232308 Z" id="Shape" fill="#276EF1" fill-rule="nonzero"></path>
                            <path d="M199.397917,105.283385 L199.397917,155.877231 L155.764583,155.877231 L155.764583,106.076423 C163.073568,112.812231 199.397917,105.283385 199.397917,105.283385 Z" id="Shape" fill="#C78982" fill-rule="nonzero"></path>
                            <path d="M155.764583,113.153538 L155.764583,95.6966538 L199.397917,95.6966538 L199.397917,133.120038 C192.309505,133.120038 187.366667,133.120038 181.561589,131.112346 C171.571008,127.431834 162.689387,121.248817 155.764583,113.153538 Z" id="Shape" fill="#99644D" fill-rule="nonzero"></path>
                            <path d="M134.639714,55.9343077 C134.639714,54.7798846 134.639714,53.6355 134.780078,52.5111923 C134.915254,50.9204653 135.139522,49.3385916 135.451823,47.7730385 C135.451823,47.5923462 135.451823,47.4216923 135.451823,47.241 C135.451823,24.4838077 151.563672,5.72192308 172.377734,3.0015 C174.109484,2.77121989 175.85435,2.65385723 177.601302,2.65015385 C200.871745,2.65015385 219.710677,22.6166538 219.710677,47.241 C219.710677,47.4116538 219.710677,47.5722692 219.710677,47.7328846 C220.186888,50.1715769 220.451891,52.6468862 220.502734,55.1312308 C220.502734,55.4022692 220.502734,55.6632692 220.502734,55.9343077 C220.502734,55.9343077 220.643099,57.7111154 220.562891,60.7527692 C220.562891,62.7604615 220.392448,64.7681538 220.191927,66.6955385 C220.191927,67.2275769 220.081641,67.7495769 220.001432,68.2715769 C219.747439,70.3930385 219.413238,72.4944231 218.998828,74.5757308 C218.259717,78.2216127 217.254414,81.8082806 215.991016,85.3068462 C213.736766,91.5397771 210.704941,97.4625331 206.967578,102.934385 L206.787109,103.205423 C206.155469,104.118923 205.503776,105.032423 204.781901,105.915808 C202.350044,109.168488 199.668285,112.226123 196.761068,115.060846 L196.520443,115.281692 C184.769922,128.331692 171.034245,128.903885 158.511719,115.281692 L158.28112,115.060846 C154.007434,110.870244 150.220308,106.209609 146.991797,101.167615 C144.989896,98.0255905 143.214132,94.7447453 141.677995,91.35 C139.756124,87.1795261 138.209336,82.8458416 137.05599,78.4003846 C135.866829,73.881039 135.104837,69.2597273 134.780078,64.5975 C134.669792,63.3226154 134.609635,62.0376923 134.579557,60.7628077 C134.579557,60.3010385 134.579557,59.8593462 134.579557,59.4477692 C134.539453,57.2192308 134.639714,55.9343077 134.639714,55.9343077 Z" id="Shape" fill="#C78982" fill-rule="nonzero"></path>
                            <path d="M174.633594,81.4721538 L174.633594,81.3617308 L174.633594,81.4721538 Z" id="Shape" fill="#C78982" fill-rule="nonzero"></path>
                            <path d="M174.633594,81.4721538 L174.633594,81.3617308 L174.633594,81.4721538 Z" id="Shape" fill="#C78982" fill-rule="nonzero"></path>
                            <path d="M130.639323,129.5865 C135.451823,131.513885 142.129167,133.069846 155.774609,133.069846 L155.774609,112.430769 C155.293359,111.908769 154.772005,111.426923 154.350911,110.854731 C153.929818,110.282538 153.428516,109.790654 152.967318,109.248577 C152.50612,108.7065 152.145182,108.244731 151.744141,107.742808 C151.663932,107.652462 151.583724,107.552077 151.513542,107.451692 C151.189712,107.094167 150.894691,106.711507 150.63125,106.307308 C146.129557,98.1159231 144.675781,95.4758077 142.730729,83.2188462 C140.895964,71.7147692 142.129167,61.1342308 152.536198,56.8176923 C166.953646,50.8648846 177.310547,37.2125769 181.902474,22.2954231 C181.902474,37.584 192.670443,50.7243462 203.097526,57.159 C213.324089,63.4631538 211.489323,75.5695385 210.68724,83.259 C209.383854,95.3653846 203.318099,106.237038 199.397917,112.430769 L199.397917,165.112615 L200.290234,165.303346 C230.679167,172.039154 256.586458,142.676654 246.179427,113.314154 L218.718099,33.3076154 C215.11287,18.8265081 204.447752,7.14755732 190.364453,2.25865385 C187.90853,1.42732686 185.376228,0.84222561 182.804818,0.511961538 C181.073029,0.28207437 179.328189,0.164713423 177.58125,0.160615385 C160.416667,0.160615385 145.227214,11.4438462 138.840625,27.1640769 C138.269141,28.5795 137.677604,29.9547692 137.086068,31.3300385 L118.096745,88.6396154 C113.414583,100.946769 111.509635,121.917115 130.639323,129.5865 Z" id="Shape" fill="#000000" fill-rule="nonzero"></path>
                            <path d="M243.783203,164.440038 C243.783203,164.440038 240.965885,151.841769 243.56263,145.959231 L244.946224,142.827231 L212.441797,156.881077 L243.783203,164.440038 Z" id="Shape" fill="#000000" fill-rule="nonzero"></path>
                            <path d="M253.418229,261.160615 C253.414648,261.13733 253.414648,261.113632 253.418229,261.090346 L101.734245,261.090346 C101.734245,261.090346 101.734245,261.090346 101.734245,261.160615 L58.0207031,261.160615 L58.0207031,261.040154 L75.796875,202.024038 L79.4563802,189.8775 C82.9253906,175.231385 97.3027344,164.349692 112.371875,161.769808 L147.553255,153.317423 C152.371821,152.154354 155.769183,147.840168 155.774609,142.877423 L155.774609,133.079885 L199.387891,133.079885 L199.387891,142.877423 C199.388556,147.838483 202.782554,152.15366 207.599219,153.317423 L242.790625,161.769808 C257.829687,164.349692 272.227083,175.231385 275.70612,189.8775 L297.141797,261.150577 L253.418229,261.160615 Z" id="Shape" fill="#FFFFFF" fill-rule="nonzero"></path>
                            <polygon id="Shape" fill="#276EF1" fill-rule="nonzero" points="252.586068 261.090346 218.627865 261.090346 110.116016 151.992346 144.054167 151.992346"></polygon>
                            <path d="M194.194401,55.7034231 C189.969701,55.696758 185.966705,57.595651 183.296094,60.8732308 L182.504036,61.8770769 C181.409507,63.2169528 180.81094,64.8943068 180.809635,66.6252692 C180.809635,67.0592348 180.637457,67.4754263 180.330976,67.7822863 C180.024496,68.0891463 179.608819,68.2615385 179.175391,68.2615385 L174.453125,68.2615385 C173.550557,68.2615385 172.81888,67.5289558 172.81888,66.6252692 C172.820406,64.8955346 172.225429,63.2183148 171.134505,61.8770769 L170.352474,60.8732308 C167.681609,57.5891647 163.674021,55.6861526 159.444141,55.6933846 L142.199349,55.6933846 C142.143977,55.6933846 142.099089,55.7383283 142.099089,55.7937692 L142.099089,71.0823462 C142.099089,79.5758908 148.975948,86.4612692 157.458984,86.4612692 C164.482027,86.4676861 170.613687,81.7009779 172.347656,74.8869231 C172.616797,73.7723731 173.235156,72.7733297 174.11224,72.036 C175.685032,70.7405682 177.95351,70.7405682 179.526302,72.036 C180.407823,72.7754227 181.02972,73.7780231 181.300911,74.8969615 C182.991824,81.5363266 188.868151,86.253038 195.708333,86.4612692 C204.441016,86.7222692 211.529427,79.3640769 211.529427,70.6105385 L211.529427,55.8038077 C211.529427,55.7483668 211.484539,55.7034231 211.429167,55.7034231 L194.194401,55.7034231 Z" id="Shape" fill="#000000" fill-rule="nonzero"></path>
                            <path d="M182.092969,99.4510385 C180.670844,98.5776035 178.846564,98.7321882 177.591276,99.8325 C176.335988,98.7321882 174.511708,98.5776035 173.089583,99.4510385 L166.241797,103.667192 L167.505078,104.761385 C170.308267,107.184104 173.88818,108.516655 177.591276,108.515769 C181.294372,108.516655 184.874286,107.184104 187.677474,104.761385 L188.940755,103.667192 L182.092969,99.4510385 Z" id="Shape" fill="#99644D" fill-rule="nonzero"></path>
                            <polygon id="Shape" fill="#FFAFA1" fill-rule="nonzero" points="536.473438 171.788192 473.580078 171.788192 473.580078 140.769346 473.580078 88.1979231 536.473438 88.1979231"></polygon>
                            <path d="M346.510026,261.050192 L361.549089,207.705808 C367.354167,186.886038 383.205339,170.995154 403.056901,166.096385 L450.179297,154.441731 C463.894922,151.048731 473.610156,152.062615 473.570052,137.055115 L473.570052,135.248192 L481.911719,135.248192 C482.975463,135.246773 484.03108,135.433689 485.029818,135.800308 C486.225914,136.247296 487.320294,136.929996 488.248177,137.808 L504.289844,152.5545 L521.895573,137.526923 C522.768625,136.784162 523.766741,136.202907 524.843229,135.810346 C525.842935,135.447334 526.89791,135.260531 527.961328,135.258231 L536.503516,135.258231 L536.503516,137.065154 C536.503516,152.122846 546.178646,151.068808 559.894271,154.451769 L607.016667,166.106423 C626.868229,171.005192 642.719401,186.896077 648.524479,207.715846 L663.493359,261.060231 L346.510026,261.050192 Z" id="Shape" fill="#000000" fill-rule="nonzero"></path>
                            <path d="M543.76237,59.5883077 L542.208333,91.7113846 C547.552214,90.5469231 552.655469,84.3230769 554.139323,79.0026923 L557.347656,67.599 C558.128113,64.1643704 556.97482,60.5770334 554.339844,58.2431538 C552.769786,56.9937801 550.76242,56.4320319 548.772903,56.6852819 C546.783386,56.938532 544.980269,57.985325 543.772396,59.5883077 L543.76237,59.5883077 Z" id="Shape" fill="#FFAFA1" fill-rule="nonzero"></path>
                            <path d="M466.210938,59.5883077 L467.764974,91.7113846 C462.411068,90.5469231 457.317839,84.3230769 455.833984,79.0026923 L452.625651,67.599 C451.845194,64.1643704 452.998488,60.5770334 455.633464,58.2431538 C457.204111,56.9905459 459.213796,56.4268521 461.205796,56.6801779 C463.197796,56.9335037 465.002921,57.9823327 466.210938,59.5883077 Z" id="Shape" fill="#FFAFA1" fill-rule="nonzero"></path>
                            <path d="M551.432292,57.1489615 L550.028646,64.4469231 C549.777995,65.772 549.386979,67.3781538 548.895703,69.1951154 C544.604557,85.1060769 532.513151,116.867769 532.513151,116.867769 C527.874052,127.966042 517.0329,135.190066 505.016732,135.190066 C493.000563,135.190066 482.159412,127.966042 477.520312,116.867769 C477.520312,116.867769 465.428906,85.1060769 461.13776,69.1951154 C460.65651,67.3881923 460.265495,65.7820385 460.004818,64.4469231 L458.601172,57.1489615 C453.006641,28.3486154 474.291927,0.923538462 503.567969,0.0702692308 L504.981641,0.0702692308 L506.395312,0.0702692308 C535.671354,0.923538462 556.956641,28.3486154 551.432292,57.1489615 Z" id="Shape" fill="#FFAFA1" fill-rule="nonzero"></path>
                            <path d="M552.264453,46.5282692 C551.532552,21.9741923 532.523177,0.873346154 507.558333,0.140538462 L506.184766,0.140538462 L504.981641,0.140538462 L503.788542,0.140538462 L502.404948,0.140538462 C477.440104,0.873346154 458.440755,21.9842308 457.708854,46.5282692 C457.612597,51.3114648 458.213806,56.083135 459.49349,60.6925385 L462.772005,72.9595385 L468.35651,72.9595385 L466.832552,69.4661538 C463.218142,61.2004581 463.019879,51.8380438 466.28112,43.4263846 C467.471909,40.2684439 468.243815,36.9677482 468.577083,33.6087692 L468.938021,30.3161538 C470.015053,26.1629575 473.09159,22.8221361 477.138784,21.4109197 C481.185978,19.9997032 485.669644,20.7043565 489.090365,23.2892308 C498.501512,30.4118302 511.491848,30.4118302 520.902995,23.2892308 C523.115045,21.5998226 525.820874,20.6861796 528.602995,20.6892692 C534.465682,20.6713731 539.595133,24.6337519 541.065365,30.3161538 L541.426302,33.6087692 C541.76676,36.9675403 542.54192,40.2677387 543.732292,43.4263846 C546.99123,51.8376916 546.796617,61.1979276 543.190885,69.4661538 L541.666927,72.9595385 L547.251432,72.9595385 L550.529948,60.6925385 C551.789215,56.0799451 552.373468,51.3088327 552.264453,46.5282692 Z" id="Shape" fill="#7C4F40" fill-rule="nonzero"></path>
                            <path d="M547.211328,72.9595385 L537.064974,110.955115 C532.998471,125.323233 519.897026,135.240218 504.981641,135.240218 C490.066255,135.240218 476.96481,125.323233 472.898307,110.955115 L462.761979,72.9595385 L468.336458,72.9595385 L475.866016,90.1855385 C478.372526,97.2124615 487.626562,96.7005 492.338802,94.2009231 L496.710156,91.8318462 C501.877352,89.0331073 508.105981,89.0331073 513.273177,91.8318462 L517.644531,94.2009231 C522.346745,96.7506923 531.600781,97.2124615 534.117318,90.1855385 L541.646875,72.9595385 L547.211328,72.9595385 Z" id="Shape" fill="#7C4F40" fill-rule="nonzero"></path>
                            <path d="M537.45599,49.4093077 L533.034505,48.8170385 L532.663542,48.7367308 L529.655729,48.2448462 C526.961725,47.8028205 524.221916,47.7117178 521.504557,47.9738077 C517.053887,48.4233315 513.16096,51.1677428 511.237891,55.2115385 C510.667615,56.389819 509.344538,56.9996091 508.079688,56.6671154 C506.055475,56.1079767 503.917832,56.1079767 501.89362,56.6671154 C500.625599,57.0050049 499.296476,56.394367 498.725391,55.2115385 C496.80051,51.1648882 492.903075,48.4199793 488.448698,47.9738077 C485.731339,47.7117178 482.99153,47.8028205 480.297526,48.2448462 L477.289714,48.7367308 L476.91875,48.8170385 L472.497266,49.4093077 C469.205882,49.7921975 466.84348,52.767933 467.213542,56.0648077 C467.27056,56.5096477 467.395682,56.9430381 467.584505,57.3497308 C468.516736,59.2632547 469.33365,61.2309709 470.030859,63.2423077 C470.389178,64.3031836 470.838691,65.3309555 471.374349,66.3140769 C472.432103,68.2699583 473.850798,70.0072023 475.555208,71.4336923 C479.011842,74.4873737 483.638492,75.8576183 488.198047,75.1780385 C494.02412,74.2926384 498.677548,69.8579847 499.848307,64.0755 C499.96149,63.448333 500.035159,62.8146588 500.06888,62.1782308 C500.123894,60.9391778 500.983524,59.8826851 502.184375,59.5782692 C504.025263,59.1260579 505.948044,59.1260579 507.788932,59.5782692 C508.989783,59.8826851 509.849413,60.9391778 509.904427,62.1782308 C509.938148,62.8146588 510.011818,63.448333 510.125,64.0755 C511.295759,69.8579847 515.949188,74.2926384 521.77526,75.1780385 C526.32494,75.8483924 530.938602,74.4787361 534.388021,71.4336923 C536.092431,70.0072023 537.511126,68.2699583 538.56888,66.3140769 C539.11142,65.3316408 539.567651,64.3038502 539.932422,63.2423077 C540.623097,61.231426 541.433312,59.2637183 542.358724,57.3497308 C542.547548,56.9430381 542.67267,56.5096477 542.729687,56.0648077 C543.100003,52.7714202 540.743326,49.7972527 537.45599,49.4093077 Z M497.682682,63.6438462 C496.723767,68.4449161 492.863103,72.1297344 488.027604,72.8591538 C484.245227,73.4117274 480.41124,72.2740521 477.540365,69.7472308 C476.122593,68.5651555 474.941988,67.124192 474.061328,65.5009615 C473.179503,63.8729445 472.576278,62.1085305 472.276693,60.2809615 C472.184804,59.7238265 472.151202,59.158615 472.176432,58.5945 C472.353174,54.757131 475.188012,51.5671278 478.974089,50.9451923 L481.460547,50.5436538 C483.700317,50.17403 485.978469,50.0964229 488.238151,50.3127692 C491.233101,50.6008687 493.962208,52.1570716 495.73763,54.5891538 C496.406936,55.5293122 496.871484,56.5997814 497.101172,57.7311923 C497.291667,58.5844615 497.51224,59.8493077 497.672656,60.8029615 C497.841644,61.7420729 497.845038,62.7035625 497.682682,63.6438462 Z M537.786849,58.6246154 C537.812079,59.1887304 537.778477,59.7539419 537.686589,60.3110769 C537.387003,62.1386459 536.783778,63.9030599 535.901953,65.5310769 C535.007317,67.150589 533.813024,68.5848349 532.382812,69.7572692 C529.511937,72.2840906 525.67795,73.4217658 521.895573,72.8691923 C517.094919,72.1050884 513.277896,68.4275536 512.330729,63.6538846 C512.165059,62.714187 512.165059,61.7526976 512.330729,60.813 C512.491146,59.8593462 512.711719,58.6045385 512.902214,57.7412308 C513.131901,56.6098199 513.59645,55.5393507 514.265755,54.5991923 C516.041177,52.1671101 518.770285,50.6109071 521.765234,50.3228077 C524.024916,50.1064613 526.303069,50.1840685 528.542839,50.5536923 L531.029297,50.9552308 C534.815374,51.5771662 537.650211,54.7671695 537.826953,58.6045385 L537.786849,58.6246154 Z" id="Shape" fill="#FFFFFF" fill-rule="nonzero"></path>
                            <polygon id="Shape" fill="#276EF1" fill-rule="nonzero" points="600.399479 154.783038 500.429818 255.498923 499.868359 256.051038 500.038802 256.081154 466.070573 256.081154 465.910156 256.051038 466.38138 255.569192 466.451562 255.498923 566.451302 154.783038"></polygon>
                            <path d="M618.797266,258.450231 C618.265885,256.9545 617.704427,255.438692 617.112891,253.993154 C598.410328,207.317803 552.816611,177.096207 502.597014,178.086806 C452.377417,179.077405 408.007932,211.073555 391.15599,258.450231 C390.955469,259.032462 390.744922,259.614692 390.554427,260.196923 L412.752083,260.196923 C413.002734,259.614692 413.263411,259.032462 413.514063,258.450231 C428.992327,223.382014 463.112556,200.24293 501.380229,198.86263 C539.647903,197.48233 575.342634,218.103215 593.301042,251.965385 C594.433984,254.093538 595.496745,256.261846 596.469271,258.480346 C596.729948,259.062577 596.990625,259.644808 597.23125,260.227038 L619.408854,260.227038 L618.797266,258.450231 Z" id="Shape" fill="#FFFFFF" fill-rule="nonzero"></path>
                            <path d="M432.332943,249.034154 C426.958984,250.941462 421.244141,251.985462 415.970443,254.334462 C415.810026,254.404731 412.491406,258.349846 410.345833,259.273385 C409.557539,259.572238 408.754391,259.830234 407.939583,260.046346 L375.976563,260.046346 L376.036719,259.0425 C376.076107,258.621807 376.076107,258.198347 376.036719,257.777654 L375.605599,253.692 C375.53825,253.141944 375.53825,252.58571 375.605599,252.035654 C375.816863,249.999325 376.918292,248.161336 378.613411,247.016423 L378.673568,247.016423 L380.277734,245.902154 C382.369857,244.443077 384.059764,242.478284 385.190495,240.190269 L386.754557,237.008077 C387.490065,235.129574 389.004977,233.664078 390.905339,232.992692 L391.035677,232.992692 L391.536979,232.852154 L393.6625,232.239808 C395.750768,231.636037 397.640438,230.485584 399.136719,228.907038 L400.420052,227.551846 C401.90912,225.937383 404.07253,225.122308 406.255208,225.353423 C406.828085,225.415567 407.390727,225.550499 407.929557,225.754962 C408.465204,225.955181 408.973783,226.221588 409.44349,226.548 L416.692318,230.322462 C418.728304,231.410131 420.498495,232.935683 421.875781,234.789577 L432.332943,249.034154 Z" id="Shape" fill="#FFAFA1" fill-rule="nonzero"></path>
                            <path d="M640.132682,259.674923 L640.042448,260.056385 L593.38125,260.056385 L592.819792,259.865654 C590.644141,259.102731 586.052214,254.736 583.846484,254.043346 L593.872526,240.752423 C595.249813,238.898529 597.020003,237.372977 599.05599,236.285308 L606.304818,232.510846 C606.777985,232.184235 607.289904,231.917842 607.828776,231.717808 C610.461088,230.715498 613.43778,231.423786 615.338281,233.504654 L616.601563,234.9 C618.097844,236.478546 619.987513,237.628999 622.075781,238.232769 L624.201302,238.845115 L624.702604,238.985654 L624.832943,238.985654 C626.729501,239.659498 628.240394,241.124646 628.973698,243.001038 L630.53776,246.183231 C631.665187,248.473436 633.355745,250.438985 635.450521,251.895115 L637.044661,253.009385 L637.104818,253.009385 C638.799937,254.154297 639.901366,255.992286 640.11263,258.028615 C640.185926,258.574543 640.192659,259.127368 640.132682,259.674923 Z" id="Shape" fill="#FFAFA1" fill-rule="nonzero"></path>
                            <path d="M662.159896,260.909654 L347.793359,260.849423 L367.29401,260.267192 C370.636024,260.166808 373.978038,259.979423 377.320052,259.705038 C384.046455,259.15985 390.739674,258.261848 397.372135,257.014731 C400.099219,256.506115 402.816276,255.937269 405.523307,255.308192 C413.687774,253.415562 421.724624,251.008226 429.585807,248.100577 L429.716146,248.100577 C432.389757,247.116808 435.039974,246.072808 437.666797,244.968577 C439.244227,244.299346 440.814974,243.630115 442.379036,242.960885 L442.739974,242.800269 C447.418793,240.698885 452.177821,238.835077 457.017057,237.208846 L457.738932,236.967923 L458.851823,236.5965 C459.613802,236.345538 460.365755,236.104615 461.127734,235.873731 C463.467144,235.144269 465.806554,234.475038 468.145964,233.866038 C493.665067,227.153756 520.444179,226.850325 546.108464,232.982654 C551.59407,234.287979 557.008664,235.876172 562.330599,237.740885 C564.596484,238.530577 566.852344,239.377154 569.098177,240.280615 C569.90026,240.601846 570.692318,240.923077 571.494401,241.284462 L579.916276,244.807962 C583.559071,246.327115 587.235286,247.739192 590.944922,249.044192 C593.618533,249.981115 596.315538,250.8645 599.035938,251.694346 C603.861806,253.159962 608.727778,254.438192 613.633854,255.529038 C615.839583,256.024269 618.055339,256.476 620.28112,256.884231 C625.401085,257.754231 630.524392,258.456923 635.651042,258.992308 C638.18763,259.263346 640.734245,259.484192 643.280859,259.654846 L644.002734,259.654846 L662.159896,260.909654 Z" id="Shape" fill="#FFFFFF" fill-rule="nonzero"></path>
                            <path d="M510.596224,99.3807692 C509.66504,99.0782467 508.686409,98.9489618 507.708724,98.9993077 C505.89401,99.0796154 504.079297,99.0796154 502.264583,98.9993077 C501.286898,98.9489618 500.308267,99.0782467 499.377083,99.3807692 L490.844922,102.281885 L492.429036,103.034769 C496.380029,104.797155 500.666771,105.677488 504.991667,105.614654 C509.316563,105.677488 513.603305,104.797155 517.554297,103.034769 L519.138411,102.281885 L510.596224,99.3807692 Z" id="Shape" fill="#FFAFA1" fill-rule="nonzero"></path>
                        </g>
                    </g>
                </g>
            </g>
        </g>
    </g>
</svg>